{
  "asset": {
    "version": "2.0",
    "generator": "THREE.GLTFExporter"
  },
  "scenes": [
    {
      "name": "Scene",
      "nodes": [
        3
      ]
    }
  ],
  "scene": 0,
  "nodes": [
    {
      "matrix": [
        0.4452372193336487,
        0,
        0,
        0,
        0,
        0.4452374577522278,
        0,
        0,
        0,
        0,
        0.44523733854293823,
        0,
        0,
        0,
        0,
        1
      ],
      "name": "shadeBlack_001",
      "extras": {
        "name": "shadeBlack_001"
      },
      "mesh": 0
    },
    {
      "matrix": [
        0.4452372193336487,
        0,
        0,
        0,
        0,
        0.4452374577522278,
        0,
        0,
        0,
        0,
        0.44523733854293823,
        0,
        0,
        0,
        0,
        1
      ],
      "name": "shadeWhite_006",
      "extras": {
        "name": "shadeWhite_006"
      },
      "mesh": 1
    },
    {
      "name": "center005",
      "extras": {
        "name": "center.005"
      }
    },
    {
      "matrix": [
        2.220446049250313e-16,
        0,
        1,
        0,
        0,
        1,
        0,
        0,
        -1,
        0,
        2.220446049250313e-16,
        0,
        0,
        0,
        0,
        1
      ],
      "name": "wheel.glb",
      "children": [
        0,
        1,
        2
      ]
    }
  ],
  "bufferViews": [
    {
      "buffer": 0,
      "byteOffset": 0,
      "byteLength": 6960,
      "target": 34962,
      "byteStride": 12
    },
    {
      "buffer": 0,
      "byteOffset": 6960,
      "byteLength": 6960,
      "target": 34962,
      "byteStride": 12
    },
    {
      "buffer": 0,
      "byteOffset": 13920,
      "byteLength": 3792,
      "target": 34963
    },
    {
      "buffer": 0,
      "byteOffset": 17712,
      "byteLength": 1680,
      "target": 34962,
      "byteStride": 12
    },
    {
      "buffer": 0,
      "byteOffset": 19392,
      "byteLength": 1680,
      "target": 34962,
      "byteStride": 12
    },
    {
      "buffer": 0,
      "byteOffset": 21072,
      "byteLength": 1656,
      "target": 34963
    }
  ],
  "buffers": [
    {
      "byteLength": 22728,
      "uri": "data:application/octet-stream;base64,"
    }
  ],
  "accessors": [
    {
      "bufferView": 0,
      "componentType": 5126,
      "count": 580,
      "max": [
        0.5516952276229858,
        0.5563808083534241,
        0.28948959708213806
      ],
      "min": [
        -0.5527493953704834,
        -0.5502929091453552,
        -0.2409140169620514
      ],
      "type": "VEC3"
    },
    {
      "bufferView": 1,
      "componentType": 5126,
      "count": 580,
      "max": [
        1,
        0.9999980926513672,
        0.9999804496765137
      ],
      "min": [
        -1,
        -0.9999980926513672,
        -0.9999804496765137
      ],
      "type": "VEC3"
    },
    {
      "bufferView": 2,
      "componentType": 5125,
      "count": 948,
      "max": [
        579
      ],
      "min": [
        0
      ],
      "type": "SCALAR"
    },
    {
      "bufferView": 3,
      "componentType": 5126,
      "count": 140,
      "max": [
        0.1952466070652008,
        0.19706827402114868,
        0.2446935474872589
      ],
      "min": [
        -0.19575917720794678,
        -0.19396138191223145,
        0.22027656435966492
      ],
      "type": "VEC3"
    },
    {
      "bufferView": 4,
      "componentType": 5126,
      "count": 140,
      "max": [
        1,
        0.9999980926513672,
        0.9999980926513672
      ],
      "min": [
        -1,
        -0.9999980926513672,
        -0.005487675312906504
      ],
      "type": "VEC3"
    },
    {
      "bufferView": 5,
      "componentType": 5125,
      "count": 414,
      "max": [
        139
      ],
      "min": [
        0
      ],
      "type": "SCALAR"
    }
  ],
  "materials": [
    {
      "pbrMetallicRoughness": {
        "metallicFactor": 1,
        "roughnessFactor": 1
      }
    }
  ],
  "meshes": [
    {
      "primitives": [
        {
          "mode": 4,
          "attributes": {
            "POSITION": 0,
            "NORMAL": 1
          },
          "indices": 2,
          "material": 0
        }
      ]
    },
    {
      "primitives": [
        {
          "mode": 4,
          "attributes": {
            "POSITION": 3,
            "NORMAL": 4
          },
          "indices": 5,
          "material": 0
        }
      ]
    }
  ]
}